<mxfile host="app.diagrams.net" modified="2024-03-11T12:51:40.133Z" agent="Mozilla/5.0 (Windows NT 10.0; Win64; x64) AppleWebKit/537.36 (KHTML, like Gecko) Chrome/122.0.0.0 Safari/537.36" etag="T5TUPa4QR_Lq7F1J8GDf" version="24.0.4" type="github">
  <diagram name="1 oldal" id="QWPfTXM_rXP71SHQvvOn">
    <mxGraphModel dx="989" dy="545" grid="1" gridSize="10" guides="1" tooltips="1" connect="1" arrows="1" fold="1" page="1" pageScale="1" pageWidth="827" pageHeight="1169" math="0" shadow="0">
      <root>
        <mxCell id="0" />
        <mxCell id="1" parent="0" />
        <mxCell id="SjUBWq7fOGHOJjNHGmkC-21" value="" style="rounded=0;whiteSpace=wrap;html=1;strokeColor=none;fillColor=#000000;" vertex="1" parent="1">
          <mxGeometry x="230" y="670" width="480" height="200" as="geometry" />
        </mxCell>
        <mxCell id="SjUBWq7fOGHOJjNHGmkC-5" value="" style="shape=image;verticalLabelPosition=bottom;labelBackgroundColor=default;verticalAlign=top;aspect=fixed;imageAspect=0;image=data:image/png,iVBORw0KGgoAAAANSUhEUgAAApcAAAIaCAYAAAB1QmaXAAAAAXNSR0IArs4c6QAAAARnQU1BAACxjwv8YQUAAAAJcEhZcwAADsMAAA7DAcdvqGQAADyzSURBVHhe7d1/bBxnft/x76ZA5QDBqcHBdv846uyKK1+ZtQ/o2YG7Sx0ki4JF0oeySUA5NmorgkDK9wMkivrsxEIktTrEOgEtiSCpSaiK6cbKiQ3uWFzIlWHKkiLtxoDdAjnz2LNIxbSYf2whMGQEiFWgYeeZeWZ3djm7O7t8dndm5/0Slrvz7DPPDHXn9cff55nZxA8n/nhDAAAAAAMStz/7nHAJAAAAI35JPwMAAABbRrgEAACAMYRLAAAAGEO4BAAAgDGESwAAABhDuAQAAIAxhEsAAAAYQ7gEAACAMYRLAAAAGEO4BAAAgDGESwAAABhDuAQAAIAxhEsAAAAYQ7gEAACAMYRLAAAAGEO4BAAAgDGESwAAABhDuAQAAIAxhEsAAAAYQ7gEAACAMYRLAAAAGEO4BAAAgDGESwAAABhDuAQAAIAxhEsAAAAYQ7gEAACAMYRLAAAAGEO4BAAAgDGESwAAABhDuAQAAIAxhEsAAAAYQ7gEAACAMYRLAAAAGEO4BAAAgDGESwAAABhDuAQAAIAxhEsAAAAYQ7gEAACAMYRLAAAAGEO4BAAAgDGESwAAABhDuAQAAIAxiduffb6hXwMAYuCtAwf0K6B+T168qF8B/giXABAzKlw++25ObwHBvfl4hnCJmpgWBwAAgDGESwAAABhDuAQAAIAxhEsAAAAYQ7gEAACAMYRLAAAAGEO4BAAAgDGESwAAABhDuAQAAIAxhEsAQAzk5fT+/bLf8zid128Zo45xVC6s600gpgiXAICY2ClHzr0tb7/tPF5K62YARhEuAQAAYAzhEgAQb+sX5KieKj964YKe2l6XC0fLps7zp2X/0Qtiz3p79tm//7SUzLCXjMccOeKHcAkAiImbcvZweSDMy+nDZ+XBk85U+StyWRbt9i45+FyfLF4rxsb8tUXpe+6g9Y7a57LsdafYT4q8UQiR1jHeEHlFtZ87InL2B6zBROwQLgEAMeFdc/mS2Esu19flo51H5Bm9/rLr4HPS57wUSe+WvsVrhRB67SPdT+3jDarHF+XmmpsgrWO8ogKopeugPNd3UwpvATFBuAQAwFdanjnykV2VXL/whny0N+2ERlufnLRDqn74Xh1k7feRfgnECOESABBfXV3y4M2zcl7PfqsQ6UyLO7rSe0Uun5fzl0X2pnW0VPtYvYpT4V435XJet6/n5fLNPtnNVemIGcIlACAmvGsu3Ytt0vLSyT5ZPO60/UD2FqfFFTW1/eCiLD74nBwslC2tfez1lIcLY+0vXPmzUx5c+4HTZq/l1NPvQIwkbn/2+YZ+DQCIgbcOHJBn383pLZRQV3ofXpPn3DWZlvzp/XJtN/fFVN58PCNPXryotwB/VC4BANDy58/KzZ0PFNdWWmHzDfdCHgCBEC4BADHm3M/Snd4+vtgnJ19TV3vrdnXLIffqbwCBMC0OADHDtDgaxbQ4gqByCQAAAGMIlwAAADCGcAkAAABjCJcAAAAwhnAJAAAAYwiXAAAAMIZbEQFAzJTfikjdXgaopPz/K9yKCLWEMlyqDz6gk/BhjDDhPpdoFOESQYQ2XPLBh07BhzHChs9YNIrPMwTBmksAgBFXr16Vj6+elKsze2XmpH78zl67HUB8EC4BAGasnRB5QCTV/5rsObRHnnrBej6xR65YDwDxQbgEABixtibyK7/8tPz9P/xIXj9xxX5W21ZzZ8iOSmI0qzcAVEK4BACYYaVIFSiVQ7paqbZV6KwlO5qQRCIhmclV3eInK6OJjDhd1OtR62erWMebG5KNqX69XYv3XJVWny/QPoRLAIART51+za5Yeh06dEK+++qU3qokK3PTaZlY2ZDcWLduq6VfpjamrJ8tspqUFwMHSz8tPl+gjQiXAAAjvnzfQ5I68NtyRQdMFSxPWK9/8+CIve1PVfQGZFryMp5MSHHWWbU71Uz/qWi/yqBf/2J7ZnJS77MqkxnPsdR0d2ZSspMZZ/9N41hjJJOSLGmz8mahf3lFUh2z+Ds51Vjv+erXk9Zx9bGKw3r7KaXbm4/p/C7uONUrv0BrEC4BAMZ4g+TrJ/ZYjxN6qxJV0VuQEXEql25xMDs6ILKwIRsbKzKxdMoTtvxV6q/alyZWrPYNmZFZK/Ap3TI4nJbpOR3PbixJenhQ+sdydr8N+3xGZEGfjP/YWTkznrKaVXt5RbL0d/KvxlrBc3nIOd7CiEwPBJky9ztmt4zl1LZ6LEhq/EyAcYDmIlwCAIxaE1W5vGJXLQ/VDJd+1DS5WIFLVeOSMp7Py/KKfstXpf7OdPvwoBPuuseOWYHP0T04LOmlG7Jq/ZmflUIfxQmTbnirNHZSetLTMlBSJa2HFTxf1JG0f8g6ryW5UbPoWOGYqvJqVy5VtTTIOEBzES4BAE2wRw4d2mMFzEZvQ+RU/ZyKXLGiWVmd/bsHZVhmZT47b/0clkK2tILagCyU7e83tlMxXOk5ZYW6Vl2o43NMFSxP9ciKfW6qWgq0H+Gyk6xfkKP7j8qFdb3ddHk53dLjAYgC++rwtSty4vUr8t2jtS7m8aMqdHmZnQ9agqvUv6w9O6enxRU1NS6yPLesypbWlpIVp2jpTZbVz6V7bEYm0o1UC4tjrk6ekum0G3Cd4xUqtSXn7Nh0zNQu5/x9+gLtQLjsJF0H5bW3X5ODXXobANrgKStQqilxFSyrX8xTSbeMzUyIjCf1dG+tymCl/mXtc1JS2evelZLp6aXClLiaDp+2/gzYY1iPzKSsVhxbXWijtpMynjomm5dV9svQiPeCnnJpSS0/b4+ZHBeZmBlzAqI63jG1BlOfQ8k5+xxTTalPD/j0BdqH7xbHFqjK5RvywDkCbTV8F68Z6oMq4bzEFnXEZ6yaDravswl+ex91pXVydlhWck6QK99uHRUST0nPSs4nlIYbn2cIgsplRymbpranyffLfvtx2npX87QfvXBB77MuF47ul9OFTpb8adl/9ILYw1Uaq0Ad23qvZABg69z/+vUGy9D9FzFaSFfvBqZlpHDRTWXFW/d4K4TO7XtKK4YATCFcdiwr7B2+LHvPvS1vv209Toq8YadO1X5WHjzptL8il2XR7t8lB5/rk8VrxXCYv7Yofc8dtN6pNJZLBdPjImrMl9K6Ddi6SiGSCmacqdv8BLxox9JduL2QeriVwm59+552VQ7V7xC9qiUQFOGyU62vy0dyU84e1tXG44tyc80KhKp95xF5RmfAroPPSZ/zUiS9W/oWr+mqZF6ufaT7VRpLu/yDw3J57zkhV8I0FSLVo5FKZeurm9RTAUAhXHa0PjmpKo3uo2b6S8szRz6yq5LrF96Qj/ampbiUstJYN63HzpKwCWxVeUyrVqlMVHi39dXN1h8RAMKIcNmpurrkQVksm762qPabZ+W8nv1WIdKZFnd0pfeKXD4v5y+L7E3raFlpLNtO2fvKa3JSjstR3/eB+gWNaSqEbrS8YugcNbhEy88QANqJq8U7irqoxnP1troI5/BZu7Zo6zvpVBzVhTrHnUi588gRefDs5ZIrvvOn91tRUfd1+Y4lnuOpdZeH5awckXOvqXWacHF1ZTDqgyh4qNyw+lIpbJTfZ+z/u8ZnLjb7J7sz+pWDzzMEQbjsKCpcXpPdVuoLvPzRDo1r8pxnHxUur+1+mzWUhvBhHGX1RF7VU1Upw1+nJFwiKMIlGsG0eCfJX5PFnQ/UVTXMnz8rN737WGHzDfdCHqCFTEeyrYxX3LeeCXr1M/zBEgCajXDZCdx7UB7/SI68UmtK2rmfpXO/yv1yfLFPTtrT2Lpd3XKo5hjA1vhFsFoxrt5p8K1Mmgfb19sr6B5M5pvyVz85IT/8UG8ACBXCZSewv/ZRXcVdXDdZWZccfM1z1XdhOtxtDzIG0Bg3VNYbsFRFMHxVwfrPJ4y/RTj9Qn74H/+rzP6d+/rH8ld2u/bhj+W/3/s9+f5Derukf5R4f7eo/g7AZoRLAC0TNFSW1/faWe9rPAwSI834mnz/939D/rXesj30G/LHvV/WG1Hm87sBHYBwCSBUVCTbkH90NqqoN3A6US9o4Cv2qz8Qu/s62+W1SmqXlajK3Qk5oB4/WdZtirei93cyO6X7WI9vX/cr8znjbJ4y99/3b6//10Kb/fjJL+z2kvMpqSjq87n+48I+pedRaT/vscqrler5R/KOfCLn/sg7XuWxgDAjXAJomnpilBvOvD+rUSGtnoAZdFxH8HFdxdBYesV4+TnWG4rj4q9+8iNZe+J7cvH3T8jFHrGClp8vy/Co9b7q8/tPywPvXC2dLrcD5GV54DsnPFPmLv99v9L7QqHtCXlEjv/br9m9S87n4P1y7s+vyd/a7yhWCLzdo997RP7Gcx6V9/uFnH/nfjluH6u8WqkqmOr498th69zdqmz1cwDCi3AJoGlUjAoaMINV9Jw+bt9K+wQ9ZuOqH0EFyOafQyf5hVz74H7Z8y/1VPdDPVbQquBDt2LoVPrWPdW8K3/+h7K25wUZrjRjXmVfFeTkoBv6fM7nkyXJF/pbIfCbTgh1ztUdq9p+98oD9/9MThYqo7XUOgcgvAiXAJqqWp0uWKD0ckarVf1rTm2wtB5ZjopkC6hweOVeOWtX/1Slz+sT63G/rN2ukL6q7Wu9d1Ke9ql2muRUTs/ee9kKt2UXKAEdhnAJwLigkbF2IAtD/c89B/dsvRFTtTjb5UGZqFkPVdX7RK78Hx0MP1yuMC1uue9e+Yp63tTnftnzWy/Iv7v9hxXWYlp89/2F/PCCFKbDHV+T3Q+Xnc/9KUlXqogW1N7vK73Dctj6Xb1VU3+NngPQfpH4hh71jQBAlJT//zdO32ihPlBaEayadRwVEp1xvaP7Ha1Vv6l5ofyGnr+7Jt/+o0vyN+r1w4/IEx98Ig98R01xq4ta1DpK97Wa0q7WR627/EM5d9/TcrEkMPrv2/WXJ+TkB3YHx/375OzobiuEevrbayHd6XbvsSptV9rPPb57bqX7qnt3qnP5F098T6+7rDRW6/ANPWgEX/8INBkfxltXX4wzFfqK4ziB0+yYtZn6PTbj6x8RFOESjWBaHEBDVPQJJnjPcu6etSJW6RGCB7LyqezN4zgtjQbL4kR60N/Eq7FjAkC7xSpcXr16VT6+elKuzuyVmZP68Tt77XYA9Qkefar1rPaeOz1dWz0xzBsoVfgrDZTl6hnZ4R3PPZaZqicAREO8KpdrJ0QeEEn1vyZ7Du2Rp16wnk/skSvWA0AQ1aNYfdRY7sPL3fYLZPUf3wl2xf0Sno899Z73KI1EwPIzIkYCiLtYrblUlUoVKP/+H34kr5+4IoesUPkrv/y0/IeDX5M/uRy6v4bAsqMJOdWzIrmxbt1SJjsqiVM9spIbkwo90ESsUapE/TPnRjHv661zKpLef6bV2Gp768dR40a9Esm6djSKzzMEEbPKpdjBUlHBUlHba1Z7IKuTkklkZHJVb4eBdU5zdrBckVHfc1uVyTmCJdrPG/Uc3oBmJqy5x3CDZfGY7qutH6exYLn5tweAThWrcPnU6dfsiqXXoUMn5LuvTumt6lbnZyU1kpLZ+TCly0F5sVLFUht8kWCJxhTDWuOK6w6bRY3vPUbxbJt3zPoEXz0KANEXq3D55fsektSB35YrOmCqYHnCev2bB0fs7epWZX42JUNTQ5Kanbe2dOtkRhKJRPExmtXvZGW00O6tKKp2a3tytLBPpqTcWGk/77FGrV6K1Tf5vMyvqn0GZFryMp70jqfak5K02srHAoJwI1F5NAoSNpt7MYsa0xl/w/4Y8x6jGcfzo44f5G+idWcEAGEQr2lxizdIvn5ij/U4obdqWJ2X2dSQ9Ft/hlLjckZnyO6xnGxsWP8a3ViQEevPwlS/3Z4dHZCliRXnvYWUjD8/WQikokLg8pB+b0Ty42d0WKy2X1bOjKdkwT7WlHUWXv0yZR8/LRMrG4W1l9XPAfAXJC4FC0tmv1/b+n+xfnZ/OmcR7Cgmz8Sljh/sb6IZRweAsIpduFTWRFUur9hVy0MBw2X2zLikhpxI1z80ItNzbhx0qCBnJUsd+rIyN52W4UE9Gd0/JCP5WSnOplsh8EUdD9V7siQ37Peq7ZeUnvS0DBQqo7XUOgdgMxMhyA2Bm6NX/aOrsYrjuWGyts1HChYCnT3rP8/K3HMvjmxy9DhTFzIG/jgE0FKxDJeOPXLo0B4rYAa5DZEKaiLTA2p62XoMqI05q1XLjsqALIguWjZJt4zlNmSl55RnWhwwS4WgoDGsEu80eGmQCjayGyYVNZZ3PD9+Ya3x30HtWft4lQKi2+79DVzuyNVHh0MvH9L/0T1a/plnfeaqO2QUP3O9/QG0Wzwrl+rq8LUrcuL1K/LdowEu5snOyfTIgjO9rB8LI9PiFC+tDzW7aOlNlv0yNJIvXvij9k8Pi1tErKz2ft1jMzKRdiud1TR6DoibSkEpiFr7Bg9S3jhWa6/So9Y+hurv3ad8u37qmH4jlJ5LkGNs7TziQS37KVsK1D9V+dZrANouluHyKStQqilxFSyDXMyTnZuWET0l7nKnxtV0+LT1Z8C9CCfjrGvsn1qQ1HhSVzqXZGIm2BXblfdT/2WujpGU8dQx2fy56oRJ7wU9jZ4D4sGNNcEDoJezt7vv1iNSPWdR7xmr/t59vNt+Z67anHa/d9Weqt07YjnnvWo9XEH6xIX7GWc9Rud0m+KtSq7KZEb3sR6lF0O6nHE2T5nrcYJcTGnv7ByreI2mtZ/+fN/cF4BXrG6iDrRDGG86XCscBRN8FDPH83I/thoZ1T0b57nSuVU750bfC8bdW420Nff+6pfsZ+tz3n52hfEztuTLIFSQU/9BvJKz/kNaBblT0mO/1p1tqn1OhuyqpttnRuT550Vmyvsqqs+AMwulZprsY4gs6KqoOv7c0IZM9atQ6YwxOJ+R5PIxu7/3/Pz6bj5eZ+Im6ggixmsugfjyhp/GI0y1CFU66tbClh81YvmolX8T/7Nxniudm3+7M1KlfRT1nv+ZqHeq7Smy9MHPJHf9L2Vh/qfyw1f/wH4c/K3fkKFvDcq/+nrKDov1PFxq/3DzuQDRebWZCoV21VDNGpUuEZp9PinLx6oFvWoXU7rr6pMyns/L8opI9+CwpJduyKr158aSe37+fQEUES6BmFCBxy/0+MUd/3BUj9JRg41X6QyD8btRuTta0N+x9tGdkbz9nJbSI5Qf79NPP7FDo3q4ofF733nBDn39+/cVwuD3vvNtOXP6VbnwZ+f1niKjL3xbXnzpZfmfP12wK5D1PFxzP53XryJOBUv1Vbb22nd1+zWvvPVIy1LtBekVOLdyc9fV28vouwdlWGZlPjtv/fSuWffpC6CAcAnEhAo8m6ORv/Jw5K/yOOXvVB7P+pezfuU9w82cXqXjlrb57VnaVrp3pf7eM3JaNvd0W+7e/UKuX79mh8bX/+S/2aHx2O+9bIdG9fjKP7/PDo17d/faoVE9XJlMrx0a/9MfvFoIg5f/8rodBGf+9Lx8/+XftR9P7OuTTO9u2bFjh94zuPKQGV7qVmtlFyA6rzZL7XLWjm/qk5bhmZwcW05WWItZTdnxC7plVyovy3PLIsODes16pb4AXIRLIHb8YlUjKo9TfEcFtdJQVyph9/X2KO3tbjkjOj/92morHVft5b+nc0bFKeqf/Ph/FKqNbmh0p6h3fnVHITT+/IMle7+urh12aFSPmx/fssPdzz9csUOjerih8elnnrVC4zfl0Ud/vXDMakrPv9N0y9jMhIh7AeKc+E+Lq6ns6YGqffqnVmR41hqnrgttyo7vufWRffHm9FJxyr5KXwAOLugBmiyqC+DVB0PQ4Fav4tjuq9pH29yj0r5um7/1W7fk1q2P7de569ft59WVFXvq+s6dO3aoVFIPPyLbt2+X++67X7qTSbst09trP+/Y8VXpqlpJdM7HORPnT7AA6fwutXtuDZ+xaBQX9CAIwiXQZK3+MC6PWv6C9fLnfmRU3989QvUjBT0Pbx/3+KXUFPX7771nv1764AM7KN7+9FNZWblht6n3VB8VClU4VNIZJywmdyXtEKnCpAqVlbnn4X8OlRTDZdDft7n4jEWjCJcIgnAJNFkrP4yrRZfasca/R+0x/XpUfkdxw5b6o/o4iq/Kvf++FQy/+EJXHW/ZbfmcU3VcuXHDrjpu23aPPPrYY3Zb6uGH5Utf2i733X+fJJO77Db1nupTmTpT7zn4/w7lvUwrP14z8BmLRhEuEQThEmiyVnwY+weSza3eltJ3nY8B7+StO0WrOD/99vC2FAUNje4U9d27dwtVx58vOVVH7xT1o49awfCee+yqo1rTqLhT1Mldu+yqY2XF38j5WXmKutp79XL//uodzfm7q32uW8FnLBpFuEQQhEuT1G0y5oacG/QCWrM/jJ0I4xWkpZQbYor93FfO8+b93ff8eYOhU3W8WzJFnbt+zX52p6i3bdsm37ACpKKqjmp6utYUtXMG1c+jaPNvUK96RmgkIG79DIMjXKJRhEsEQbg0JiujoyJTBEuUae6HcWkkKW65/1iXvueoFna8scifGwzdKer/q6qOVoBU3ClqbzBUVcd/aoVH7xS1urVOder81Fk4v5Hz0+F/ht4etQUNfO3S7PMjXKJRhEsEQbg0ZXVVVru79X3QgKJmfRhvDiBu5PKLJW5L5X/cVVXx00/cK6Y/sNvcKWrV7lYd3WDoTlFvu2ebHSCVoFPU1QOsGxTd5+oaD2LF8cvHqHVk1bf8N/Dbx6+fv1pH3HyOW0G4RKMIlwiCcBmI/t7aiZSMjzu37U1P6O/AtenvrFUv7e+tTcpkRn0Nmf7mBvdbJXJjhM8Yau6HsRs2Kv9jrCqJqqKouFPU6+u37Mqj4lYiVVXxvvudK6Z/LfWw3eZOUat2t+roT52HE3425B/ts1GvndbqwcjZxzl/v37e9zdzjtRI8PLfxxnP5dentEdRtXOo9DtUP+9KR9o6wiUaRbhEEITLQHR4tIOjlRZVWBwQWdiYEic7JmRuSAXJVStUPi8yk5PB+Ywkl4/Z/dX7p3q8YRRx4vdh7H7vs/XPn/3cKDcYOlXHT0umqNWaR1V1VJVEVVFU3Clq9W0v7n0aq09Ru+Gm1sfE5iDkDU6VwpXi7Ll5/3pUD2mOIH2ardrfg6sV50m4RKMIlwiCcBmIrlyu5MTJh95tT9VSG1mwgmZyUpycOSjzOnCSLeOpWrjcKjcYqqrivffdVzJF7d4EvDI3wPyj9ShW/9xnbxAqDTybg2ClaKjagnzAuEcpHqNUswJXtXG9v39tlf4GwolwiUYRLhEEX/9oRFomVqx/DW04D3sqvHtQhmVW5rPz1s9hKXxzGOChKpdbebhfKXjmP/8X+ysFx8b/vRU4v2k/nGDpxCNvRCoGJvVK/XFCUTFkOc/Oew4naLk2h6hf8mlTivt7j7uZet89hl+/SgGweITGVB63+vluVnkcAIgbwuWWJaUnnZfZ+VW97eqWXam8LM8tiwwPstYSJdxwWK9ihCnGMO/DodrdLSc+eaOPN1CVv6eU9i0q7+dVK4ipd6sFOZfqofoFD3a1xwQAtBbhcsu6ZWxmQmQ8KYmE9a/FxKhk9Tv9QyMyPb1kZUuiJcxwLpVRYU0FMBWs3BDm1h83Cx7U6hMkLDaqmWMDAJqLcBlIv0xteNdMlm13j0lOT4lv6It8bP1T1jZrLWGOG7rcCWSncuesG3RanCDptDoPZ0txtlze+OYNoKW9St/zKm0P0gcAEAeESyByVGRT0dCJkL+k/zF2WryRUfFWNIuvVORzq6CKdz/nlf975Yrv+feptm/4EIQBwATCJRAxpXExURISXapd9fKGO9XLrSSWv+dV7OH0r9YvSGXS26PSWJXVHr/ZqL4CQH0Il0DEOMGwWLssxrViCPILRE7f0t6V+rlUf9XH6VvkjFM5eHp5e9Qf1GqPX019x/M/Vv2BGADijXAJRJAbmUqjk18Icnr4RSzVO0jYVJy+RaqfGzzdbVcjYay+EKgE61/vuZSPWv95AQAIl0AEOZFJRR8n/DjPxSBUDFXOs3O5j6NSYFI9g4bNcqX7bd6n1ij1B9J6+2/md8zylvrPCwBAuAQiyY2LTvhRIShh/+PstKqA5wY6JyAVQ1LQwOTsVeyrxgsaNstVO6J3zEbHd7n7B/kdgxxra2ezVe09OgA0inAJRJQKUE7EdELIhv4aR2e7eNlPkBAVJIypHu4RFecotceuxTm2M44zfnFM9TrIubncvn7n1ciZBj9yM7T36ADQKMIlEGHewFSMk+q5GEyChKp6QmLpUUqP03jYLI7jFzadsV2NHaN4hGrcsYvHBwDUh3AZAtnRhIy6X+sDNKhYU1SKrxuJR43EN3WcZoRNRf1uxZbNv1HpccqPWc85uGM7z9XOv9HfrF6tOg4AmEK4DCQro4mMTJZ/fXhdKoyRHZVTPSsyVfhaH6Ae3tjlDV3qdeOxxDtSPQHR21ONYa7yV32c0uOUnr13e/PvYubvqJladRwAMIVw2W79U5Lj+yHRICd4qIDkF5r8Y0l5wKoVAOsJiOELQqVnVP67VPvdGo+dABBvhMuaVMVxQKYlL+PJhGTs0uOqTGasfy0lnIfTpujq5ORo2Xv1jzE6mpFEZtLq5ba5/SadY6w6+xem07PWMQv9ESfW/zPsn6Uqhyanf1E9lclO4/ebu38f6m9JvfLv4yj/u2ymOP/vBCBaCJc19cvUxoKMSFomVjZ0lbFbxnLWR/2GeixIavyMFf9cVoBcHnLeWxiRvP1e/WMs9czIRm7M6qVy44AsTazYfWdk1gqpSrcMDqdles7Za/XGkqSHB+3+CL97f/VL9gPh4w2M6pVfyHR7WP/06leO0j5mg2crgywAbAXhslGqUmhXE1VFckluFEqGVoB8US+g7B+yAqX3vTJVxhgedGNiVuami9vdY8esMR3dg8OSXrohq9af+Vnx7IOocENmPY+93+yVu3e/0COgFdyQWYkbMr19VJs3EJbGUADoXITLRqhQeKpHVnTV0Q17dTExRvegDMuszGfnrZ/DQraMntuffV73Y8eOHXJpcVGPgDCoVFV07j3qcHoUI2bpPkRPAJ2DcNmo1C5nCjo7p6epGxBojKT0pPMyO6/LmiV91dS4yPLcsipbMiUeIW5QbEQ60yv53HW9hXArD53eSqa3suk+Vw6Z5ZVQAAgrwmUg/TI04rkYR013Tw84U9pzErDq2OgY3TI2MyHWjr59u3elZHp6iSnxGMn09kruOuGyE6jAWMr9hiL/kLm5PwCET+L2Z5+H7tPqrQMH5Nl3c3oLXquTGUnODsuKvtinfBvh8+bjGXny4kW9ZUb3A13yv/56SbZv365b0NnM1i35jEWjmvF5hs5D5TICVIB0LvxJSHJcZGJGBUnnVkTFbcRJpne35K5f01vofOaCJQA0G+EyArrHcvqWReqRE+ee6+6tjNxtxAnrLgEAYUW4BCKIdZcAgLAiXAIRlHr4EVm/9bHcuXNHtwAAEA6ESyCiWHcJAAgjwiUQUay7BACEEeESiCjWXQIAwohwCUQU6y4BAGFEuAQijHWXAICwIVwGkpXRxKj1sxXUsTKiviESqKV/YFCyC/N6CwCA9iNcBtIvUxtT1k8gXKhcAgDChnAZSHk1UW07X8eYGPXWM4vtmclJvY/zNY2FbtlRSWQmxRmq0jgu533ftwBL144d9vP6rVv2MwAA7Ua4bEB2dEBkQX314opMLJ0qhE7VvjSxYn9N44zMyrTd2i2Dw2mZnnMS4uqNJUkPD9rfBV5pHIcKpaekZ2VDpiiZogqqlwCAMCFc1i0rc1ZqnB5QFcekjOfzsrzitqdleND5ou/usWMyYr+yXg8OS3rphhUXV2V+VnSfSuM4Zp9PyvIxvjcctWUyvZLjfpcAgJAgXDYkLRMrquLoPGpWFrsHZVhmZT47b/0cFp0/LZXGyVuPtCzd4Koe1EblEgAQJoTLuiWlJ52X2fny4FfWnp3T0+KKmhoXWZ5bVmVLe0q88jhKWoZncnJsOSkZLhtHDay7BACECeGybt0yNjMhMp50LsQp3KKorH1OCtPiSveulExPLxWmzSuPU9Q/tSLDs9b7XNGDGqheAgDCgnAZhF2FTMmuQi4ck5yeyt7w3qLI077SsyTT6eIUuLqQRzzbNt9x1G2P3LWWVgDNWe9xRQ9qYN0lACAsCJc12LcKGpiWkYXa97lcnczoKmRCkuMiEzNjVjx0bkVU3AbMo3IJAAgLwmUNU7qyGKR42D2W01VI9SirPha2AfNYdwkACAvCJdAhqF4CAMKAcAl0CNZdAgDCgHAJdAgqlwCAMCBcAh1Crbvcvv2fydIHP9MtAAC0HuES6CCZ3l7JXY/v1HjC+gMAaC/CJdBB0pleyXfwussN6081td4HADQf4RLoIJ2+7lJVJomPABBuhEugg2zfvl26dny1o9ddMvENAOFGuAQ6TNzXXQIA2otwCXSYTl93CQAIN8Il0GG43yUAoJ0Il0CHicO6SwBAeBEugQ7EuksAQLsQLoEOxLpLAEC7EC6BDsS6SwBAuxAugQ7EusvguCk7AJhFuAQ6VP/AoCzMz+stVMJN2QHALMIl0KHURT2suwQAtBrhEuhQjz72mD0tfvfuF7oFwTBRDgBbQbgEOtS2bfdI6uFH5P333tMtCIaJcgDYCsIl0MHULYm43yUAoJUStz/7PHRzQG8dOCDPvpvTW0C0vfl4Rp68eFFvtZa6HdGZ06/K3E+5sAdF6jMWaFS7Ps8QHYRLoMnaGS7VestfeygpP/9wxZ4mjzP1QceENwA0H9PiQAdj3WURwRIAWoNwCXQ41l0CAFqJcAl0uPje75JbCgFAOxAugQ4X3/tdqolwAiYAtBrhEuhw8V53yUpLAGg1wiUQA6y7VKhiAkArEC6BGOB7xpX6qphEUQBoDOESiIFM72573eWdO3d0C2phQh0AGkO4BGJCBUz1jT0AADQT4RKICbXukqlxAECzES6BmFDrLrmoBwDQbIRLICbU7YjWb33MuksAQFMRLoEYYd0lAKDZCJdAjLDuEgDQbIRLIEZYdwkAaDbCJRAjrLsEADQb4RKIGdZdAgCaiXAJxAzrLgEAzUS4BGKGdZcAgGYiXAIxw7pLAEAzES6BGHpi335559LbegsAAHMIl0AMPbFvnxUuL+ktAADMIVwCMcQV4wCAZiFcAjHUtWOH/bx+65b9DACAKYRLIKaoXgIAmoFwCcRUJtMrOe53CQAwjHAJxBSVSwBAMxAugZhi3WV1G9YfAED9CJdAjFG9rCxh/QEA1I9wCcQY6y4BAKYRLoEYi2flkuluAGgmwiUQY3Fcd7nBdDcANBXhEoi5uFUv3WjJBTsA0ByESyDm4rruUl2wU+2iHcInADSGcAnEXP/gU5Kd/wu9FS/VAiRXiwNAYwiXQMxt375dunZ8VZY++JluiQ+qkwBgXuL2Z5+H7tP1rQMH9CugMzx58aJ+FU7Hfu9l6eraIaMvfFu3xIf6AKRGCQDmhDJcAmithfm/kAt/dl5m/vS8bgEAoDGESwBy584d+cbXU7K6tq5bAABoDGsuAcR63eVm/Pc2AGwF4RKALdPbK7nrfBWkWoHJhT4A0DjCJQBbOtMreb5nXF/gwyU+ANAo1lwCsIV/3aUT+wAA4UblEoAt/OsuCZYAEAWESwAFYV93yTQLAIQf4RJAQdjXXba+dunGWWItAATFmksABWFbd6mu2m7/xTWs9QSAelC5BFCg1l0mk7vk/fff0y3tFY6rtgmWAFAPwiWAEnv39ck7i4t6q/2YWgGAaCFcAiihLuoJ07rL6nVDoicAhA3hEkCJRx97zL4d0d27X+iW9qscIVs7ZU2UBYDaCJcASmzbdo+kHn5E3n8vHOsulbCsemT1JQDURrgEsIm6JVHY7ndJ1RAAooFwCWCTsK27VJyqIRETAMKOcAlgk3Csu9wcJNVdLyshdgJAOBAuAWwSjnWXm4NktTWPrIcEgHAgXALwFY51l37VSwBAmBEuAfgKx7rLStVLIiYAhBXhEoCv8Nzv0i9IMgkOAGFFuATgKzz3u6w/SFLXBID2IVwCqCiM97sMIgx1TQIugLgiXAKoaGBwULIL83oL9VABl4AJII4IlwAqUtPi67c+ljt37uiWaNloSrwLPiYrQwHEEeESQFWZ3t2Su35Nb0VLoinxjsgIANUQLgFUpdZdhu2rIMsx/QwA4UG4BFCVut9l2C/qaU8tkUgLAH4IlwCqis66y1aHPabHAcAP4RJATdFYd0nYA4AwIFwCqCkK6y4BAOFAuARQUxTWXQIAwoFwCaCmqN/vEgDQOoRLAIFE+X6XAIDWIVwCCIR1lwCAIAiXAAKJ3rrL9tyHkrtfAog7wiWAQNS6y08/+UQ+/fQT3RJ27bk1ETdEAhB3hEsAgT3R1yfvLC7qLQAANiNcAggsk+mVHOsuAQBVEC4BBMYV4wCAWgiXAALr2rHDfl6/dct+BgCgHOESQF2oXgIAqiFcAqgL6y4BANUQLgHUhcolAKAawiWAurDuEgBQDeESQN2oXgIAKiFcAqgb6y4BAJUQLgHUjcolAKASwiWAurHuEgBQCeESQEOoXgIA/BAuATTkiX375J1Ll/QWAACOxO3PPt/QrwEgsDt37sg3vp6S1bV13QIAAJVLAA3avn27dO34qix98DPdAgAA4RLAFmR6eyV3nVsSAQCKCJcAGpbO9Eqe+10CADxYcwmgYay7BACUo3IJoGGsuwQAlCNcAtgS1l0y+QMAXoRLAFvCusuEfgYAKKy5BLAlrLtU1McoIRMAFCqXALaEdZcKwRIAXIRLAFvGuksAgItwCWDLWHfpYpURABAuAWxZpne3vP/ee3L37he6Ja6YHgcAwiWALVPrLpO7dtkBsxnCUw+kMgkAtRAuARihpsabte4yPPVAKpMAUAvhEoAR6qKeOKy7pHYJANURLgEY8ehjj9m3I+r0dZfBa5fEUADxRLgEYMS2bfdI6uFHmrbuMnqYQgcQT4RLAMY0c92lI1rVwA2qlwBiiHAJwJjmr7uMVjUwQfUSQAwRLgEYE5d1lwCAygiXAIxpzbrL6E01MzkOIE4IlwCMav66y7BNNdeOjkyOA4gTwiUAo+Jyv8sioiMAeBEuARgVx3WXTHsDQBHhEoBRcbzfJbVLACgiXAIwbu++fXL50iW91RxUCwEgnAiXAIzbt69PLl1a1FvNQbUQAMKJcAnAODUtvn7rY7lz545uAQDEBeESQFNkendL7vo1vdUsTI4DQNgQLgE0hbrfZfNvScTkOACEDeESQFOo+10292bqAIAwIlwCaArWXQJAPBEuATRNa9ZdhhXrQQHEE+ESQNO0Zt1lWGMc60EBxBPhEkDTtGrdZVhjHLVLAHFEuATQNJ2/7rJ6fKR2CSCOCJcAmqqz110SHwGgHOESQFO1at1lPTaMTlgz+Q0AXoRLAE31RF+fvLPY3O8ZdwUNjQmjFUeqlwDgRbgE0FTJ5C754u4Xsn7rlm5pHrOhsR5ULwHARbgE0HSdf79LqpcA4CJcAmi6TKZXciFbd2lekOolFU4AnY9wCaDp4vFNPUGql1Q4AXQ+wiWApuvascN+bsW6y/aiMgkAhEsALUH1EgDigXAJoCXise5SoXoJIN4IlwBaotWVS7M3Sq8H1UsA8Ua4BNASrV532b57XipULwHEF+ESQMvEY92lQvUSQHwRLgG0THzWXSpULwHEE+ESQMvEp3KpUL0EEE+ESwAtE5/7XbqoXgKIH8IlgJbat2+/XLr0tt7qdFQvAcQP4RJAS+3dt08uX7qkt+KA6iWAeEnc/uxzPvkAtMydO3fkG19Pyeraum4BAHQSKpcAWmr79u3SteOrsvTBz3RLHPDf8ADig3AJoOUyvb2Sux6XWxIprL0EEB+ESwAtl870Sj4297t0Ub0EEA+suQTQcqy7BIDOReUSQMvFc90lAMQD4RJAW8Rv3SUAxAPhEkBbxHPdJQB0PtZcAmiL9q27VB95XL0NAM1C5RJAW7Rv3SXBEgCaiXAJoG1YdwkAnYdwCaBt2rXukrVAANA8rLkE0DZ3734hv/ZQUn7+4Yps23aPbgUARBmVSwBtowJl6uFH5P333tMtrbNB/RIAmoJwCaCt1NR4O9ZdJriwBwCagnAJoK3URT3c7xIAOgfhEkBbPfrYY/btiNT6y9ZjahwATCNcAmirdq675J6XAGAe4RJA27Vr3SUAwDzCJYC2a+e6SybGAcAswiWAtmvnuksmxgHALG6iDiAUhr41KC++9LJkenfrltZR97x0b0301oED9jMAhNGTFy/qV+FFuAQQCj989Q/s5++//Lv2c7uocPnsuzm9BQDh8ebjmUiES6bFAYQC97sEgM5AuAQQCu293yUAwBTCJYBQUPe7/Majj3FLIgCIOMIlgNB4Yl+fvHNpUW8BAKKIcAkgNNS6SyqXABBthEsAoaG+BnL91sdy584d3QIAiBrCJYBQUfe5zF2/prcAAFFDuAQQKup7xrklEQBEF+ESQKiw7hIAoo1wCSBUWHeJMMmf3i/7929+HL2wrnu0Wl5O7z8qbTs8EADhEkDosO4SYZF+6W15+231OCl9slOOnHO2XzvYpXsAKEe4BBA6rLsEgOgiXAIIHdZdIgpKpsxP591WZ9r6wmnfKfRq+5w+fdRqP21tWdYvyFG3n/UodC2h9vOOA4QD4RJA6LDuElFQMmW++IZnHeRNObu223nvZJ/cPHveCYyWavt89MArVvtLklah8fBZefCk7nvuiHx0vHyd5bpcOHpcRPV5Ka3bgHAgXAIIJdZdIvTybnXyuJR+aelOOfKMDnzp3dInH8m6Gwyr7LM3rddxWp0/svba7WbGroPyXN9NWfOEy8s/OCyX954TciXCiHAJIJRYd4lQU9PWduFQVRfPyZGdur2aRvbxddN67JSb3rQJhAjhEkAoDQw+JQvzf6G3gJBZX5ObOx8Qu9a4npfLKu/VEnSfri55UBblmjuXboXSNxY9lUxV5XzlNTkpx9t4SySgMsIlgFDq2rHDfl6/dct+BkIl/YwckbNyWE1x/2BNHgxShQy8T1pestdZqulz63H4suw9p9Zilkq/dE72Xj4s+49eECImwiRx+7PPN/RrAAiV733nBclkeuXpZ57VLc331oED8uy7Ob0FAOHx5uMZefLiRb0VXlQuAYSWCpY51l0CQKQQLgGEFleMA0D0EC4BhBbrLgEgegiXAEKN6iUARAvhEkCose4SAKKFcAkg1KhcAkC0EC4BhBrrLgEgWgiXAEKP6iUARAfhEkDose4SAKKDb+gBEHpqSvzffGtA/vdfL+mW5in/hh71jRgA0C7ln0dR+IYewiWASEj/+qMy8+Z5SSZ36Zbm4OsfAYQVX/8IAAY90dcn7ywu6i0AQFgRLgFEQjrTK/kIr7u8evWqfHz1pFyd2SszJ/Xjd/ba7QDQSQiXACIh8leMr50QeUAk1f+a7Dm0R556wXo+sUeuWA8A6CSESwCRsH37duna8VVZ+uBnuiVa1tZEfuWXn5a//4cfyesnrtjPattqjrTsaEIyk6t6y0d2VBKZSanSA0CHIVwCiIxMb6/krkd0atxKkSpQKod0tVJtq9AZyOqkZBIZqZbjWs46p7meFcmNrcio77mtyuRcj6zkxqRbtwDofIRLAJER5XWXT51+za5Yeh06dEK+++qU3qpudX5WUiMpmZ0PU7oclBfHqsfGwRcJlkDcEC4BREaU111++b6HJHXgt+WKDpgqWJ6wXv/mwRF7u7pVmZ9NydDUkKRm5wtTzKuTGUkkEsXHaFa/k5XRQru3oqjare3J0cI+pVPalfbzHmvU6qVYfZPPy/yq2mdApiUv40nveKo9KUmrrXwsAJ2NcAkgMqK+7tIbJF8/scd6nNBbNazOy2xqSPqtP0OpcTmjM2T3WE42Njasx4KMWH8Wpvrt9uzogCxNrDjvLaRk/HnvmkcrBC4P6fdGJD9+RofFavtl5cx4ShbsY01ZZ+HVL1P28dMysbIhOV3JrH4OADoZ4RJApER63aVlTVTl8opdtTwUMFxmz4xLasiJdP1DIzI958ZBhwpyVrLUoS8rc9NpGR7Uk9H9QzKSn5XibLoVAl/U8VC9J0tyw36v2n5J6UlPy0ChMlpLrXMA0MkIlwAiJer3u3TskUOH9lgBM8htiFRQE5ke0NPVA2pjzmrVsqMyIAuii5ZN0i1juQ1Z6TnlmRYHAH+ESwCREvX7XdpXh69dkROvX5HvHg1wMU92TqZHFpzpZf1YGJkWp3iZFado6U2W/TI0ki9e+KP2Tw+LW0SsrPZ+3WMzMpF2K53VNHoOADoB4RJApER93eVTVqBUU+IqWAa5mCc7Ny0jekrc5U6Nq+nwaevPgHsRjr6fZP/UgqTGk7rSuSQTM8Gu2K68n3uhT1LGU8dk8wXiTpj0XtDT6DkAiL7E7c8+39CvASASjv3ey9LVtUNGX/i2bjHnrQMH5Nl3c3oLAMLjzccz8uTFi3orvKhcAoic/oFByS7M6y0AQJgQLgFEzqOPPWZPi9+9+4VuAQCEBeESQORs23aPpB5+RN5/7z3dAgAIC8IlgEhStySK8v0uAaBTES4BRJK6mXr073cJAJ2HcAkgklh3CQDhRLgEEEmsuwSAcCJcAogs1l0CQPgQLgFEFusuzcmOJmSULw0HYADhEkBkdf66S/drF72PjOhvWGyAGs9n/+yonOpZkZKvKAeABhEuAURW56+77JepjQ3Z2FiQEUnLxIp6nfP5bu8t6p+SnPFBAcQV4RJApMV33eWqTGaKFc1MoRypq5OTo2XvqfYBmZa8jCfdtupjjI5mJJGZtHq5bW6/SV0BdfYvTKdnrWMW+gOIK8IlgEhrdN3lvb/6JfsRXd0yllOVTKeymRo/Y8U/lxUgl4ec9xZGJG+/p6qgxQqoU6msPsZSz4xs5MasXio3DsjSxIrdd0ZmrZCqdMvgcFqm55y9Vm8sSXp40O4PIL4IlwAizV136YbFoA/X0LcG9asIUpVCu5qoKpJLcqNQMrQC5It6AWX/kBUove+VqTLG8KAbE7MyN13c7h47Zo3p6B4clvTSDVm1/szPimcfAHFFuAQQaWrd5erautz+7PO6Hq65n87rVxGjQuGpHlkprMlsgIkxugdlWGZlPjtv/RwWsiUAwiWAWCoPmZGU2uVMQWfn9DR1AwKNkZSedF5m53VZs6SvmhoXWZ5bVmVLpsQBEC4BIJLUdPf0gDOlPScBq479MjTiuaAn8BjdMjYzIdaOvn27d6VkenqJKXEAtoT1X+4b+jUAxN5bBw7Is+/m9Bb8rE5mJDk7LCv6Yp/ybQDN8ebjGXny4kW9FV5ULgEANakA6Vz4k5DkuMjEjAqSzq2IitsAQLgEAATQPZbTtyxSD/dG7u6tjJpwY3cAkUW4BAAAgDGESwAAABhDuAQAAIAxhEsAAAAYQ7gEAACAMYRLAAAAGEO4BIBOoL4nfDSrNwCgfQiXABB5WRmdG5KNqX69DQDtQ7gEgKhbTcqLBEsAIUG4BIBQy8poIiOTk6OFr1/MTK7q9xTr/WRSkuo9e1rc+UrGwgy5mi7PTFqtANAahEsACL28jC8POV+9uDAi+fEzVqR0ZEcHRBbUVzCuyMTSKZlc7ZbB4bRMzzk9snPTkh4e5Hu/AbQM4RIAQi8tEy/qae/+IRmRJblhlyKzYmVHmR5QFc2kjOfzsrwi0j04LOmlG7Jq/bmxlJbhQaIlgNYhXAJApFnBc0VVLp2HvfSye1CGZVbms/PWz2EhWwJoJcIlAERWUnrSeZmdL19R2S27UnlZnlsWYUocQIsRLgEgsrplbGZCZDypL/YZLazF7B8akenpJabEAbRc4vZnn2/o1wAQe28dOCDPvpvTWwAQHm8+npEnL17UW+FF5RIAAADGEC4BAABgDOESAAAAxhAuAQAAYAzhEgAAAMYQLgEAAGAM4RIAAADGEC4BAABgDOESAAAAxhAuAQAAYAzhEgAAAMYQLgEAAGAM4RIAAADGEC4BAABgDOESAAAAxhAuAQAAYAzhEgAAAMYQLgEAAGAM4RIAAADGEC4BAABgDOESAAAAxhAuAQAAYAzhEgAAAMYQLgEAAGAM4RIAAADGEC4BAABgDOESAAAAxhAuAQAAYAzhEgAAAMYQLgEAAGAM4RIAAADGEC4BAABgDOESAAAAxhAuAQAAYAzhEgAAAMYQLgEAAGAM4RIAAADGEC4BAABgDOESAAAAxhAuAQAAYAzhEgAAAMYQLgEAAGAM4RIAAADGEC4BAABgDOESAAAAxhAuAQAAYAzhEgAAAMYkbn/2+YZ+DQCx99aBA/oVAITPkxcv6lfhRbgEAACAMUyLAwAAwBjCJQAAAIwhXAIAAMAYwiUAAACMIVwCAADAGMIlAAAAjCFcAgAAwBjCJQAAAIwhXAIAAMAYwiUAAACMIVwCAADAGMIlAAAAjCFcAgAAwBjCJQAAAIwhXAIAAMAYwiUAAACMIVwCAADAGMIlAAAAjCFcAgAAwBjCJQAAAIwhXAIAAMAYwiUAAACMIVwCAADAGMIlAAAAjCFcAgAAwBjCJQAAAIwhXAIAAMAYwiUAAACMIVwCAADAGMIlAAAAjCFcAgAAwBjCJQAAAIwhXAIAAMAYwiUAAACMIVwCAADAGMIlAAAAjCFcAgAAwBjCJQAAAIwhXAIAAMAYwiUAAACMIVwCAADAGMIlAAAAjCFcAgAAwBjCJQAAAAwR+f9whSRNSkcSigAAAABJRU5ErkJggg==;" vertex="1" parent="1">
          <mxGeometry x="230" y="210" width="515.12" height="418" as="geometry" />
        </mxCell>
        <mxCell id="SjUBWq7fOGHOJjNHGmkC-1" value="&lt;font style=&quot;font-size: 24px;&quot;&gt;Kréta 2.0&lt;/font&gt;" style="text;html=1;align=center;verticalAlign=middle;whiteSpace=wrap;rounded=0;fontSize=24;fontStyle=3;labelBackgroundColor=none;labelBorderColor=none;fillColor=none;strokeColor=none;dashed=1;shadow=1;textShadow=1;fontColor=#30a8ca;" vertex="1" parent="1">
          <mxGeometry x="246" y="30" width="336" height="30" as="geometry" />
        </mxCell>
        <mxCell id="SjUBWq7fOGHOJjNHGmkC-2" value="&lt;h1 style=&quot;margin-top: 0px;&quot;&gt;Adatok&lt;/h1&gt;&lt;div style=&quot;text-align: left;&quot;&gt;- adatok kapcsolata egymással&lt;/div&gt;&lt;div style=&quot;text-align: left;&quot;&gt;- adatok típusai&lt;/div&gt;&lt;div style=&quot;text-align: left;&quot;&gt;- fájlonkénti adatok&lt;/div&gt;&lt;div style=&quot;text-align: left;&quot;&gt;- esetlegesen osztályok&lt;/div&gt;" style="text;html=1;whiteSpace=wrap;overflow=hidden;rounded=0;align=center;" vertex="1" parent="1">
          <mxGeometry x="40" y="210" width="180" height="120" as="geometry" />
        </mxCell>
        <mxCell id="SjUBWq7fOGHOJjNHGmkC-4" value="&lt;div style=&quot;text-align: justify;&quot;&gt;&lt;b style=&quot;font-size: 14px; background-color: initial;&quot;&gt;&lt;font color=&quot;#ffffff&quot;&gt;A Kréta 2.0 lehetőséget ad a felhasználóknak arra, hogy a könnyen kezelhető, a felhasználóra tartozó adatokhoz hozzáférjen. A felhasználói felület könnyű, így ezzel sem kell időt pazarolni a kényelmes használat érdekében&lt;/font&gt;&lt;/b&gt;&lt;/div&gt;" style="rounded=1;whiteSpace=wrap;html=1;fillColor=#808080;shadow=1;textShadow=1;align=left;perimeterSpacing=0;fillStyle=auto;gradientColor=none;strokeWidth=4;strokeColor=none;" vertex="1" parent="1">
          <mxGeometry x="230" y="80" width="370" height="110" as="geometry" />
        </mxCell>
        <mxCell id="SjUBWq7fOGHOJjNHGmkC-8" value="&lt;font style=&quot;font-size: 14px;&quot;&gt;&lt;b&gt;Található a táblázatban 3 fájl:&lt;/b&gt;&lt;/font&gt;&lt;div style=&quot;font-size: 14px;&quot;&gt;&lt;font style=&quot;font-size: 14px;&quot;&gt;&lt;b&gt;- jegyek&lt;/b&gt;&lt;/font&gt;&lt;/div&gt;&lt;div style=&quot;font-size: 14px;&quot;&gt;&lt;font style=&quot;font-size: 14px;&quot;&gt;&lt;b&gt;- Egyéb&lt;/b&gt;&lt;/font&gt;&lt;/div&gt;&lt;div style=&quot;font-size: 14px;&quot;&gt;&lt;font style=&quot;font-size: 14px;&quot;&gt;&lt;b&gt;- Tanárok&lt;/b&gt;&lt;/font&gt;&lt;/div&gt;" style="text;html=1;align=center;verticalAlign=middle;whiteSpace=wrap;rounded=0;" vertex="1" parent="1">
          <mxGeometry x="40" y="310" width="170" height="130" as="geometry" />
        </mxCell>
        <mxCell id="SjUBWq7fOGHOJjNHGmkC-10" value="Soronként egy diák bizonyos tantárgyához tartozó jegyeket sorolja fel" style="text;html=1;align=center;verticalAlign=middle;whiteSpace=wrap;rounded=0;" vertex="1" parent="1">
          <mxGeometry x="260" y="404" width="140" height="76" as="geometry" />
        </mxCell>
        <mxCell id="SjUBWq7fOGHOJjNHGmkC-12" value="Soronként tartalmaz&lt;div&gt;egy-egy feljegyzést, valamint a diák nevét, akinek naplójába feljegyeztek egy üzenetet&lt;/div&gt;" style="text;html=1;align=center;verticalAlign=middle;whiteSpace=wrap;rounded=0;" vertex="1" parent="1">
          <mxGeometry x="510" y="390" width="160" height="30" as="geometry" />
        </mxCell>
        <mxCell id="SjUBWq7fOGHOJjNHGmkC-14" value="Soronként egy-egy tanárt tartalmaz, valamint az általa tanított tantárgyat ( max 1)" style="text;html=1;align=center;verticalAlign=middle;whiteSpace=wrap;rounded=0;" vertex="1" parent="1">
          <mxGeometry x="510" y="580" width="178" height="30" as="geometry" />
        </mxCell>
        <mxCell id="SjUBWq7fOGHOJjNHGmkC-16" value="Az azonosítók megegyeznek&lt;div&gt;(1:1)&lt;/div&gt;" style="text;html=1;align=center;verticalAlign=middle;whiteSpace=wrap;rounded=0;fillColor=#f8cecc;strokeColor=#b85450;" vertex="1" parent="1">
          <mxGeometry x="424" y="280" width="86" height="50" as="geometry" />
        </mxCell>
        <mxCell id="SjUBWq7fOGHOJjNHGmkC-17" value="&lt;font size=&quot;1&quot; style=&quot;&quot;&gt;&lt;b style=&quot;font-size: 22px;&quot;&gt;Menü (.py)&lt;/b&gt;&lt;/font&gt;" style="text;html=1;align=center;verticalAlign=middle;whiteSpace=wrap;rounded=0;" vertex="1" parent="1">
          <mxGeometry x="60" y="640" width="150" height="30" as="geometry" />
        </mxCell>
        <mxCell id="SjUBWq7fOGHOJjNHGmkC-19" value="&lt;font style=&quot;font-size: 19px;&quot;&gt;Köszöntünk a Kréta felületén!&lt;/font&gt;" style="text;html=1;align=center;verticalAlign=middle;whiteSpace=wrap;rounded=0;fontColor=#30A8CA;fontSize=19;fontStyle=1" vertex="1" parent="1">
          <mxGeometry x="130" y="690" width="510" height="30" as="geometry" />
        </mxCell>
        <mxCell id="SjUBWq7fOGHOJjNHGmkC-31" value="" style="edgeStyle=orthogonalEdgeStyle;rounded=0;orthogonalLoop=1;jettySize=auto;html=1;" edge="1" parent="1" source="SjUBWq7fOGHOJjNHGmkC-22" target="SjUBWq7fOGHOJjNHGmkC-27">
          <mxGeometry relative="1" as="geometry" />
        </mxCell>
        <mxCell id="SjUBWq7fOGHOJjNHGmkC-32" value="" style="edgeStyle=orthogonalEdgeStyle;rounded=0;orthogonalLoop=1;jettySize=auto;html=1;" edge="1" parent="1" source="SjUBWq7fOGHOJjNHGmkC-22" target="SjUBWq7fOGHOJjNHGmkC-27">
          <mxGeometry relative="1" as="geometry" />
        </mxCell>
        <mxCell id="SjUBWq7fOGHOJjNHGmkC-22" value="&lt;span style=&quot;font-size: 19px;&quot;&gt;Válasszon felhasználót!&lt;/span&gt;" style="text;strokeColor=none;fillColor=none;html=1;fontSize=24;fontStyle=1;verticalAlign=middle;align=center;fontColor=#FFFFFF;" vertex="1" parent="1">
          <mxGeometry x="314" y="730" width="100" height="40" as="geometry" />
        </mxCell>
        <mxCell id="SjUBWq7fOGHOJjNHGmkC-23" value="tanár" style="text;html=1;align=center;verticalAlign=middle;whiteSpace=wrap;rounded=0;" vertex="1" parent="1">
          <mxGeometry x="270" y="340" width="60" height="30" as="geometry" />
        </mxCell>
        <mxCell id="SjUBWq7fOGHOJjNHGmkC-25" value="" style="endArrow=classic;html=1;rounded=0;" edge="1" parent="1">
          <mxGeometry width="50" height="50" relative="1" as="geometry">
            <mxPoint x="400" y="365" as="sourcePoint" />
            <mxPoint x="482" y="551" as="targetPoint" />
            <Array as="points">
              <mxPoint x="444" y="552" />
            </Array>
          </mxGeometry>
        </mxCell>
        <mxCell id="SjUBWq7fOGHOJjNHGmkC-15" value="Tantárgyak megegyeznek&lt;div&gt;(1:1)&lt;/div&gt;" style="text;html=1;align=center;verticalAlign=middle;whiteSpace=wrap;rounded=0;fillColor=#f8cecc;strokeColor=#b85450;" vertex="1" parent="1">
          <mxGeometry x="430" y="417" width="86" height="50" as="geometry" />
        </mxCell>
        <mxCell id="SjUBWq7fOGHOJjNHGmkC-26" value="&lt;div style=&quot;font-size: 11px;&quot;&gt;&lt;font style=&quot;font-size: 11px;&quot;&gt;Egy diákot egy tantárgyból 1 tanár taníthat.&lt;/font&gt;&lt;/div&gt;&lt;div style=&quot;font-size: 11px;&quot;&gt;&lt;font style=&quot;font-size: 11px;&quot;&gt;Egy tanár több diákot tanít&lt;/font&gt;&lt;/div&gt;&lt;div&gt;&lt;br&gt;&lt;/div&gt;(n:1)" style="text;html=1;align=center;verticalAlign=middle;whiteSpace=wrap;rounded=0;fillColor=#f8cecc;strokeColor=#b85450;" vertex="1" parent="1">
          <mxGeometry x="284.75" y="480" width="158.5" height="70" as="geometry" />
        </mxCell>
        <mxCell id="SjUBWq7fOGHOJjNHGmkC-27" value="T - Tanár" style="text;html=1;align=center;verticalAlign=middle;whiteSpace=wrap;rounded=0;fontColor=#FFFFFF;strokeWidth=4;fontSize=16;" vertex="1" parent="1">
          <mxGeometry x="254" y="770" width="86" height="30" as="geometry" />
        </mxCell>
        <mxCell id="SjUBWq7fOGHOJjNHGmkC-28" value="D&amp;nbsp;- Diák" style="text;html=1;align=center;verticalAlign=middle;whiteSpace=wrap;rounded=0;fontColor=#FFFFFF;strokeWidth=4;fontSize=16;" vertex="1" parent="1">
          <mxGeometry x="254" y="800" width="86" height="30" as="geometry" />
        </mxCell>
        <mxCell id="SjUBWq7fOGHOJjNHGmkC-29" value="" style="rounded=0;whiteSpace=wrap;html=1;strokeColor=none;fillColor=#000000;" vertex="1" parent="1">
          <mxGeometry x="228.5" y="890" width="483" height="170" as="geometry" />
        </mxCell>
        <mxCell id="SjUBWq7fOGHOJjNHGmkC-30" value="────────────&amp;nbsp;Kréta ────────────" style="text;html=1;align=center;verticalAlign=middle;whiteSpace=wrap;rounded=0;fontColor=#30A8CA;fontSize=19;fontStyle=1" vertex="1" parent="1">
          <mxGeometry x="178" y="910" width="510" height="30" as="geometry" />
        </mxCell>
        <mxCell id="SjUBWq7fOGHOJjNHGmkC-33" value="&lt;span style=&quot;font-size: 22px;&quot;&gt;* opciók*&lt;/span&gt;&lt;div&gt;&lt;span style=&quot;font-size: 22px;&quot;&gt;+ kilépés&lt;/span&gt;&lt;/div&gt;" style="text;html=1;align=center;verticalAlign=middle;whiteSpace=wrap;rounded=0;fontColor=#FFFFFF;" vertex="1" parent="1">
          <mxGeometry x="190" y="960" width="240" height="90" as="geometry" />
        </mxCell>
      </root>
    </mxGraphModel>
  </diagram>
</mxfile>
